<svg xmlns="http://www.w3.org/2000/svg" xmlns:xlink="http://www.w3.org/1999/xlink" width="1226.492" height="832.63" viewBox="0 0 1226.492 832.63">
  <defs>
    <linearGradient id="linear-gradient" x1="0.095" y1="-0.018" x2="1.174" y2="2.023" gradientUnits="objectBoundingBox">
      <stop offset="0" stop-color="#e7f3fe"/>
      <stop offset="0.441" stop-color="#eff7fe"/>
      <stop offset="1" stop-color="#fff"/>
    </linearGradient>
    <linearGradient id="linear-gradient-2" x1="0.236" y1="-0.176" x2="0.598" y2="0.812" gradientUnits="objectBoundingBox">
      <stop offset="0" stop-color="#fd90da"/>
      <stop offset="1" stop-color="#8e6dfd"/>
    </linearGradient>
    <linearGradient id="linear-gradient-3" x1="0.497" y1="0.298" x2="0.139" y2="0.872" gradientUnits="objectBoundingBox">
      <stop offset="0" stop-color="#c4e0f5"/>
      <stop offset="1" stop-color="#e1e8f6"/>
    </linearGradient>
    <linearGradient id="linear-gradient-4" x1="0.814" y1="0.593" x2="-0.178" y2="0.299" gradientUnits="objectBoundingBox">
      <stop offset="0" stop-color="#6d6afe"/>
      <stop offset="1" stop-color="#3fb0f7"/>
    </linearGradient>
    <linearGradient id="linear-gradient-5" x1="0.411" y1="0.658" x2="0.689" y2="0.191" gradientUnits="objectBoundingBox">
      <stop offset="0" stop-color="#965cf2"/>
      <stop offset="1" stop-color="#ff8adc"/>
    </linearGradient>
    <linearGradient id="linear-gradient-6" x1="0.351" y1="0.655" x2="0.813" y2="0.174" xlink:href="#linear-gradient-5"/>
    <linearGradient id="linear-gradient-7" x1="0.706" y1="0.197" x2="0.374" y2="0.686" xlink:href="#linear-gradient-2"/>
    <linearGradient id="linear-gradient-8" x1="0.416" y1="0.617" x2="0.635" y2="0.249" xlink:href="#linear-gradient-5"/>
    <linearGradient id="linear-gradient-9" x1="0.546" y1="0.664" x2="0.373" y2="0.049" gradientUnits="objectBoundingBox">
      <stop offset="0" stop-color="#1c8ef4"/>
      <stop offset="0.995" stop-color="#00cfdd"/>
    </linearGradient>
    <linearGradient id="linear-gradient-10" x1="0.232" y1="-0.119" x2="0.537" y2="0.687" gradientUnits="objectBoundingBox">
      <stop offset="0" stop-color="#fd70cb"/>
      <stop offset="1" stop-color="#6e4dfd"/>
    </linearGradient>
    <linearGradient id="linear-gradient-11" x1="0.41" y1="0.623" x2="0.577" y2="0.131" xlink:href="#linear-gradient-4"/>
    <linearGradient id="linear-gradient-12" x1="0.345" y1="0.701" x2="0.655" y2="0.104" xlink:href="#linear-gradient-5"/>
    <linearGradient id="linear-gradient-13" x1="0.584" y1="0.284" x2="0.41" y2="0.8" xlink:href="#linear-gradient-4"/>
    <linearGradient id="linear-gradient-14" x1="0.544" y1="0.788" x2="0.373" y2="-0.023" xlink:href="#linear-gradient-5"/>
    <linearGradient id="linear-gradient-15" x1="0.494" y1="0.622" x2="0.528" y2="0.237" xlink:href="#linear-gradient-4"/>
    <linearGradient id="linear-gradient-16" x1="0.391" y1="0.875" x2="0.639" y2="0.023" xlink:href="#linear-gradient-4"/>
    <linearGradient id="linear-gradient-17" x1="0.491" y1="0.104" x2="0.522" y2="0.968" gradientUnits="objectBoundingBox">
      <stop offset="0" stop-color="#ff8a78"/>
      <stop offset="1" stop-color="#ffa799"/>
    </linearGradient>
    <linearGradient id="linear-gradient-18" x1="0.499" y1="0.25" x2="0.528" y2="1.44" xlink:href="#linear-gradient-17"/>
    <linearGradient id="linear-gradient-19" x1="0.423" y1="0.132" x2="0.616" y2="0.772" xlink:href="#linear-gradient-4"/>
    <linearGradient id="linear-gradient-20" x1="0.845" y1="0.229" x2="0.127" y2="0.771" gradientUnits="objectBoundingBox">
      <stop offset="0" stop-color="#235da3"/>
      <stop offset="1" stop-color="#123a76"/>
    </linearGradient>
    <linearGradient id="linear-gradient-21" x1="0.773" y1="0.21" x2="-0.151" y2="0.777" xlink:href="#linear-gradient-20"/>
    <linearGradient id="linear-gradient-22" x1="0.467" y1="0.19" x2="0.682" y2="0.907" xlink:href="#linear-gradient-4"/>
    <linearGradient id="linear-gradient-23" x1="0.435" y1="0.681" x2="0.546" y2="0.437" xlink:href="#linear-gradient-17"/>
    <linearGradient id="linear-gradient-24" x1="0.431" y1="0.163" x2="0.661" y2="0.931" xlink:href="#linear-gradient-4"/>
    <linearGradient id="linear-gradient-25" x1="0.558" y1="0.429" x2="0.305" y2="0.659" xlink:href="#linear-gradient-17"/>
    <linearGradient id="linear-gradient-26" x1="0.597" y1="0.241" x2="0.312" y2="0.78" gradientUnits="objectBoundingBox">
      <stop offset="0" stop-color="#ffb89e"/>
      <stop offset="1" stop-color="#ffa799"/>
    </linearGradient>
    <linearGradient id="linear-gradient-27" x1="0.653" y1="0.688" x2="0.447" y2="0.386" gradientUnits="objectBoundingBox">
      <stop offset="0" stop-color="#8a4791"/>
      <stop offset="1" stop-color="#562e65"/>
    </linearGradient>
    <linearGradient id="linear-gradient-28" x1="0.544" y1="0.432" x2="0.345" y2="0.802" gradientUnits="objectBoundingBox">
      <stop offset="0" stop-color="#5a2d68"/>
      <stop offset="1" stop-color="#22043d"/>
    </linearGradient>
    <linearGradient id="linear-gradient-29" x1="0.438" y1="0.586" x2="0.533" y2="0.507" xlink:href="#linear-gradient-17"/>
    <linearGradient id="linear-gradient-30" x1="0.098" y1="0.575" x2="0.794" y2="0.299" xlink:href="#linear-gradient-5"/>
    <linearGradient id="linear-gradient-31" x1="0.213" y1="0.187" x2="1.068" y2="0.765" gradientUnits="objectBoundingBox">
      <stop offset="0" stop-color="#3e4795"/>
      <stop offset="1" stop-color="#273088"/>
    </linearGradient>
    <linearGradient id="linear-gradient-32" x1="-0.078" y1="0.231" x2="1.225" y2="0.707" xlink:href="#linear-gradient-31"/>
    <linearGradient id="linear-gradient-33" x1="0.385" y1="0.834" x2="0.554" y2="0.199" xlink:href="#linear-gradient-5"/>
    <linearGradient id="linear-gradient-34" x1="0.556" y1="0.648" x2="0.472" y2="0.47" xlink:href="#linear-gradient-17"/>
    <linearGradient id="linear-gradient-35" x1="0.628" y1="0.744" x2="0.359" y2="0.067" xlink:href="#linear-gradient-5"/>
    <linearGradient id="linear-gradient-36" x1="0.522" y1="0.533" x2="0.594" y2="0.852" xlink:href="#linear-gradient-17"/>
    <linearGradient id="linear-gradient-37" x1="0.088" y1="0.373" x2="0.591" y2="0.782" xlink:href="#linear-gradient-26"/>
  </defs>
  <g id="Group_498" data-name="Group 498" transform="translate(-323.673 -148.632)">
    <path id="Path_1" data-name="Path 1" d="M222.943,258.531c184.723-72.931,372.471-8.454,499.8,131.98s394.562-96.929,536.286,43.276c96.72,95.683,52.418,341.686-80.2,448.236C998.57,1026.85,327.017,1031.2,215.593,981.5c-190.4-84.924-1.216-242.188-90.094-392.944C20.643,410.7,141.311,290.76,222.943,258.531Z" transform="translate(239.02 -79.603)" fill="url(#linear-gradient)"/>
    <g id="Group_497" data-name="Group 497" transform="translate(-805.617 -103.761)">
      <g id="Group_469" data-name="Group 469" transform="translate(1409.045 312.399)">
        <g id="Group_440" data-name="Group 440">
          <path id="Path_5972" data-name="Path 5972" d="M2260.159,1056.774l-2.649,4.763-9.523-5.3,2.649-4.762,9.523,5.3Zm-77.027-609.137,6.293,3.5,2.649-4.762-6.292-3.5-2.649,4.762Zm11.055,6.148,2.648-4.762,9.525,5.3-2.649,4.762-9.524-5.3Zm14.286,7.944,2.648-4.762,9.524,5.3L2218,467.026l-9.524-5.3Zm14.285,7.944,2.649-4.762,9.524,5.3-2.649,4.762-9.524-5.3Zm14.285,7.944,2.649-4.762,9.523,5.3-2.648,4.762-9.524-5.3Zm14.285,7.944,2.648-4.762,9.523,5.3-2.648,4.762-9.523-5.3Zm14.284,7.944,2.649-4.763,9.522,5.3-2.648,4.762-9.523-5.3Zm14.285,7.944,2.648-4.762,9.522,5.3-2.648,4.762-9.522-5.3Zm14.284,7.944,2.649-4.762,9.522,5.3-2.648,4.762-9.523-5.3Zm14.284,7.944,2.649-4.762,9.523,5.3-2.649,4.762-9.523-5.3Zm14.285,7.944,2.648-4.762,9.523,5.3-2.649,4.763-9.522-5.3Zm14.284,7.944,2.649-4.763,9.522,5.3-2.648,4.762-9.523-5.3Zm14.284,7.944,2.649-4.762,9.522,5.3-2.649,4.762-9.523-5.3Zm14.285,7.944,2.648-4.762,9.523,5.3-2.649,4.762-9.522-5.3Zm14.284,7.944,2.649-4.762,9.522,5.3-2.648,4.762-9.523-5.3Zm13.991,7.9a26.7,26.7,0,0,1,6.793,7.1l4.527-3.032a32.065,32.065,0,0,0-8.2-8.538l-3.117,4.469Zm9.26,11.485a33.934,33.934,0,0,1,2.877,9.617v-.012l5.4-.72a39.387,39.387,0,0,0-3.343-11.2l-4.933,2.313Zm3.143,14.571a98.557,98.557,0,0,1-1.385,10.513l5.39.79a103.846,103.846,0,0,0,1.438-11.087l-5.444-.217Zm-2.174,15.9,5.39.79-1.58,10.782-5.39-.79,1.58-10.782Zm-2.37,16.173,5.39.79-1.58,10.782-5.391-.79,1.58-10.782Zm-2.37,16.174,5.39.79-1.58,10.782-5.39-.79,1.58-10.782ZM2397,655.435l5.39.79-1.58,10.782-5.39-.79,1.58-10.782Zm-2.369,16.173,5.39.79-1.579,10.782-5.391-.79,1.58-10.782Zm-2.37,16.173,5.39.79-1.579,10.782-5.391-.79,1.58-10.782Zm-2.37,16.174,5.391.79-1.58,10.782-5.39-.79,1.579-10.782Zm-2.369,16.173,5.39.79-1.579,10.782-5.391-.79,1.58-10.782Zm-2.37,16.173,5.391.79-1.58,10.782-5.39-.79,1.579-10.782Zm-2.37,16.173,5.391.79-1.58,10.782-5.39-.79,1.579-10.782Zm-2.369,16.174,5.39.79-1.58,10.782-5.39-.79,1.58-10.782Zm-2.37,16.173,5.39.79-1.58,10.782-5.39-.79,1.579-10.782Zm-2.37,16.173,5.391.79-1.58,10.782-5.39-.79,1.579-10.782Zm-2.369,16.174,5.39.79-1.58,10.782-5.39-.79,1.58-10.782Zm-2.37,16.173,5.39.79-1.58,10.782-5.39-.79,1.579-10.782Zm-2.37,16.173,5.391.79-1.58,10.782-5.39-.79,1.579-10.782Zm-2.37,16.172,5.391.79-1.579,10.781-5.391-.789,1.579-10.782Zm-2.369,16.172,5.39.79-1.579,10.781-5.391-.79,1.58-10.781Zm-2.37,16.171,5.391.79-1.58,10.781-5.39-.79,1.579-10.781Zm-2.37,16.172,5.391.79L2362.9,925.77l-5.391-.79,1.579-10.781Zm-2.369,16.172,5.39.789-1.579,10.782-5.391-.79,1.58-10.781Zm-2.37,16.171,5.39.79-1.579,10.782-5.39-.79,1.579-10.781Zm-2.369,16.172,5.39.79-1.58,10.781-5.39-.79,1.579-10.781Zm-2.37,16.171,5.391.79-1.579,10.781-5.391-.789,1.579-10.782Zm-2.369,16.172,5.39.79-1.579,10.781-5.391-.79,1.58-10.781Zm-2.369,16.171,5.39.79-1.58,10.781-5.39-.79,1.58-10.781ZM2342.5,1027.4l5.39.79-1.579,10.781-5.391-.79,1.58-10.781Zm-2.37,16.172,5.39.79-1.579,10.781-5.39-.79,1.579-10.781Zm-2.368,16.171,5.39.79-1.578,10.782-5.391-.79,1.579-10.781Zm-2.368,16.172,5.391.79-.365,2.494a23.515,23.515,0,0,1-3.091,8.9l-4.633-2.867a18.1,18.1,0,0,0,2.334-6.827l.365-2.494Zm-5.619,12.588a9.96,9.96,0,0,1-8.174,1.681l-1.107,5.335a15.369,15.369,0,0,0,12.512-2.629l-3.231-4.387Zm-12.484.047-2.641,4.766-9.528-5.3,2.648-4.762,9.521,5.294Zm-14.282-7.942-2.648,4.762-9.523-5.3,2.649-4.762,9.523,5.3Zm-14.284-7.944-2.648,4.762-9.523-5.3,2.649-4.762,9.522,5.3Zm-14.284-7.944-2.649,4.762-9.522-5.3,2.648-4.763Z" transform="translate(-1784.414 -367.506)" fill="#fff" fill-rule="evenodd"/>
          <g id="Group_439" data-name="Group 439" transform="translate(313.653)">
            <g id="Group_437" data-name="Group 437">
              <path id="Path_5973" data-name="Path 5973" d="M2066.253,324.664c4.953,2.74,7.847,5.944,11.061,10.511-.039-.8-.077,2.128-.052-2.394s-2.569-11.828.969-15.489c1.4-1.45,8.232-4.116,9.873-4.537,3.148-.809,6.8-.262,10.694,1.868,5.927,3.239,11.292,9.549,15.187,17.132,3.9,7.6,6.329,20.264,6.323,24.84s-.024,1.581-.068,2.35c3.3-.991,6.258-.979,11.352,1.839s11.511,9.77,15.49,17.492a57.139,57.139,0,0,1,6.514,25.258c.015,6.6-1.489,11.833-4.048,15.46-2.579,3.656-7.564,5.815-11.1,6.987-10.131,3.518-29.664-17.022-39.971-22.856q-16.4-9.287-32.644-18.468c-5.9-3.337-11.187-9.7-14.975-17.295a55.666,55.666,0,0,1-5.981-24.641c.044-4.811-3.472-12.03,1.08-15.486C2053.03,321.866,2060.587,321.529,2066.253,324.664Z" transform="translate(-2039.145 -312.399)" fill="#8d6dfc" fill-rule="evenodd"/>
              <path id="Path_5974" data-name="Path 5974" d="M2057.249,328.973c4.952,2.74,7.847,5.943,11.061,10.511-.039-.8-.077,2.129-.051-2.394s2.475-14.4,6.363-17.688,9.245-3.711,15.172-.47,11.291,9.55,15.186,17.132c3.9,7.6,6.328,20.263,6.323,24.84s-.024,1.582-.069,2.35c3.3-.991,6.259-.978,11.352,1.84s11.511,9.77,15.491,17.491a57.026,57.026,0,0,1,6.514,25.259c.019,8.484-2.455,14.8-6.445,18.13s-9.5,3.629-15.56.2q-16.62-9.405-33.112-18.737-16.406-9.286-32.644-18.468c-5.9-3.337-11.187-9.7-14.975-17.295a55.676,55.676,0,0,1-5.982-24.641c.077-8.233,2.491-14.353,6.346-17.615S2052.3,326.233,2057.249,328.973Z" transform="translate(-2035.871 -314.219)" fill-rule="evenodd" fill="url(#linear-gradient-2)"/>
            </g>
            <g id="Group_438" data-name="Group 438" transform="translate(22.662 29.514)">
              <path id="Path_5975" data-name="Path 5975" d="M2085.254,389.528,2075.1,383.67l15.966,27.651,16.067-9.157-10.147-5.861.028-26.036-11.734-6.775Z" transform="translate(-2075.103 -363.493)" fill="#fff" fill-rule="evenodd"/>
              <path id="Path_5976" data-name="Path 5976" d="M2137.576,412.158l10.152,5.858-15.966-27.651-16.067,9.157,10.147,5.861-.028,26.036,11.734,6.775Z" transform="translate(-2092.247 -374.842)" fill="#fff" fill-rule="evenodd"/>
            </g>
          </g>
          <path id="Path_5977" data-name="Path 5977" d="M1571.63,455.17l2.309-4.153,8.3,4.618-2.309,4.153-8.3-4.618Zm12.224,388.693-6.244-3.472-2.309,4.153,6.244,3.473,2.309-4.153Zm-10.4-5.782-2.309,4.153-8.305-4.619,2.309-4.153,8.305,4.619ZM1561,831.154l-2.309,4.153-8.3-4.618,2.31-4.153,8.3,4.619Zm-12.456-6.928-2.31,4.153-8.3-4.619,2.309-4.153,8.3,4.618Zm-12.457-6.927-2.309,4.153-8.3-4.618,2.31-4.153,8.3,4.619Zm-12.456-6.928-2.309,4.153-8.3-4.618,2.31-4.153,8.3,4.618Zm-12.457-6.927-2.309,4.153-4.273-2.376a19.783,19.783,0,0,1-4.178-3.169l3.341-3.379a14.073,14.073,0,0,0,3.143,2.393l4.276,2.378Zm-10.052-8.052a22.536,22.536,0,0,1-3.152-7.94l-4.671.868a27.33,27.33,0,0,0,3.811,9.618l4.012-2.547Zm-3.488-12.149a89.642,89.642,0,0,1,1.237-9.155l-4.7-.689a91.587,91.587,0,0,0-1.284,9.669l4.748.175Zm1.926-13.857-4.7-.69,1.379-9.4,4.7.69-1.379,9.4Zm2.068-14.1-4.7-.69,1.379-9.4,4.7.689-1.379,9.4Zm2.068-14.1-4.7-.689,1.378-9.4,4.7.689-1.378,9.4Zm2.066-14.1-4.7-.689,1.378-9.4,4.7.689-1.378,9.4Zm2.066-14.1-4.7-.69,1.378-9.4,4.7.689-1.378,9.4Zm2.066-14.1-4.7-.689,1.378-9.4,4.7.689-1.378,9.4Zm2.067-14.1-4.7-.689,1.378-9.4,4.7.69-1.377,9.4Zm2.066-14.1-4.7-.689,1.378-9.4,4.7.689-1.378,9.4Zm2.066-14.1-4.7-.689,1.378-9.4,4.7.689-1.378,9.4Zm2.067-14.1-4.7-.69,1.378-9.4,4.7.689-1.378,9.4Zm2.066-14.1-4.7-.689,1.378-9.4,4.7.689-1.378,9.4Zm2.066-14.1-4.7-.689,1.377-9.4,4.7.69-1.377,9.4Zm2.066-14.1-4.7-.689,1.377-9.4,4.7.689-1.377,9.4Zm2.066-14.1-4.7-.689,1.377-9.4,4.7.69-1.377,9.4Zm2.066-14.1-4.7-.69,1.377-9.4,4.7.689-1.377,9.4Zm2.065-14.1-4.7-.689,1.377-9.4,4.7.689-1.377,9.4Zm2.066-14.1-4.7-.69,1.377-9.4,4.7.689-1.377,9.4Zm2.066-14.1-4.7-.689,1.377-9.4,4.7.689-1.377,9.4Zm2.066-14.1-4.7-.689,1.377-9.4,4.7.69-1.377,9.4Zm2.065-14.1-4.7-.689,1.377-9.4,4.7.689-1.377,9.4Zm2.066-14.1-4.7-.689,1.377-9.4,4.7.689-1.377,9.4Zm2.066-14.1-4.7-.69,1.377-9.4,4.7.689-1.377,9.4Zm2.066-14.1-4.7-.689c.434-2.964.723-6.93,1.989-9.875l4.379,1.843c-1.034,2.385-1.373,6.716-1.667,8.721Zm3.749-11.739a6.407,6.407,0,0,1,6.552-1.1l1.548-4.492a11.121,11.121,0,0,0-11.263,2.043l3.163,3.544Zm10.412.861,2.309-4.153,8.3,4.619-2.309,4.153Z" transform="translate(-1492.886 -366.754)" fill="#fff" fill-rule="evenodd"/>
        </g>
        <path id="Path_5978" data-name="Path 5978" d="M2020.355,1482.11,1732.648,1323c-7.063-3.226-17.442-6.27-24.367-2.051l-17.726,10.8c-3.564,2.173-15.289,9.383-7.448,13.647,23.071,12.543,267.895,149.094,291.323,161.838,4.431,2.409,10.914,3.281,17.718,2.716,6.774-.562,13.808-2.4,19.189-5.715l7.08-4.367c5-3.086,7.777-6.458,8.043-9.692C2026.72,1487.02,2024.69,1484.089,2020.355,1482.11Z" transform="translate(-1572.108 -737.494)" fill="#bb6ce9" fill-rule="evenodd" opacity="0.5"/>
        <g id="Group_446" data-name="Group 446" transform="translate(121.798 28.2)">
          <g id="Group_444" data-name="Group 444">
            <g id="Group_441" data-name="Group 441">
              <path id="Path_5979" data-name="Path 5979" d="M1877.874,363.631c-4.149-2.356-9.011-3.232-13.565-1.516l-10.183,3.979c-3.7,19.137,210.88,720.62,215.6,725.487l9.09-3.431c5.967-2.35,9.1-8.562,9.974-14.6l76.741-523.83a.423.423,0,0,0,.009-.058c1.249-8.81-1.4-17.98-6.243-25.341a29.506,29.506,0,0,0-10.251-9.885Z" transform="translate(-1767.235 -361.217)" fill-rule="evenodd" fill="url(#linear-gradient-3)"/>
              <path id="Path_5980" data-name="Path 5980" d="M2075.507,521.137,1804.338,370.33c-11.06-6.129-21.59-.246-23.544,13.095l-76.741,523.832c-1.953,13.34,5.4,29.138,16.457,35.266l271.172,150.807c11.06,6.129,21.614.259,23.568-13.079l76.741-523.834C2093.947,543.08,2086.564,527.266,2075.507,521.137Z" transform="translate(-1703.739 -364.041)" fill-rule="evenodd" fill="url(#linear-gradient-4)"/>
            </g>
            <g id="Group_443" data-name="Group 443" transform="translate(73.127 3.862)">
              <path id="Path_5981" data-name="Path 5981" d="M2128.974,521.137,1857.8,370.33c-11.059-6.129-21.589-.246-23.542,13.095l-3.93,26.825,311.185,173.057,3.939-26.891C2147.415,543.08,2140.032,527.266,2128.974,521.137Z" transform="translate(-1830.333 -367.903)" fill="#4a9ff8" fill-rule="evenodd"/>
              <g id="Group_442" data-name="Group 442" transform="translate(20.304 21.763)">
                <path id="Path_5982" data-name="Path 5982" d="M1870.363,423.4a15.087,15.087,0,0,1-4.665-13.357c.915-4.5,4.487-5.816,7.98-2.937a15.1,15.1,0,0,1,4.665,13.358C1877.427,424.962,1873.853,426.275,1870.363,423.4Z" transform="translate(-1865.482 -405.578)" fill="#4c68e5" fill-rule="evenodd"/>
                <path id="Path_5983" data-name="Path 5983" d="M1908.754,446.721a15.089,15.089,0,0,1-4.665-13.357c.915-4.5,4.487-5.816,7.98-2.938a15.1,15.1,0,0,1,4.665,13.357C1915.818,448.284,1912.244,449.6,1908.754,446.721Z" transform="translate(-1881.697 -415.429)" fill="#4c68e5" fill-rule="evenodd"/>
                <path id="Path_5984" data-name="Path 5984" d="M1947.145,470.043a15.089,15.089,0,0,1-4.665-13.357c.915-4.5,4.487-5.816,7.98-2.937a15.1,15.1,0,0,1,4.665,13.358C1954.209,471.607,1950.635,472.92,1947.145,470.043Z" transform="translate(-1897.912 -425.279)" fill="#4c68e5" fill-rule="evenodd"/>
              </g>
            </g>
          </g>
          <g id="Group_445" data-name="Group 445" transform="translate(47.026 188.955)">
            <path id="Path_5985" data-name="Path 5985" d="M2093.584,783.54a1.684,1.684,0,0,0-2.571,1.431,4.087,4.087,0,0,0,1.79,3.9c1.249.692,2.4.03,2.618-1.456a4.052,4.052,0,0,0-1.837-3.875Zm-308.435,71.148,2.1,1.165,22.156-151.242-2.1-1.163-22.157,151.24ZM1809.427,696.5c-1.185-.657-2.361,0-2.577,1.48a4.084,4.084,0,0,0,1.791,3.877,1.7,1.7,0,0,0,2.637-1.422,4.1,4.1,0,0,0-1.851-3.935Zm8.974,184.454,2.1,1.165,22.16-151.263-2.1-1.167L1818.4,880.949Zm24.3-158.206c-1.208-.668-2.38-.015-2.6,1.469a4.085,4.085,0,0,0,1.814,3.886,1.7,1.7,0,0,0,2.615-1.431,4.1,4.1,0,0,0-1.831-3.923Zm15.3,141.119,2.119,1.176,22.16-151.265-2.121-1.176-22.158,151.266Zm24.342-158.184c-1.225-.679-2.4-.027-2.619,1.456a4.091,4.091,0,0,0,1.836,3.9,1.69,1.69,0,0,0,2.573-1.456,4.1,4.1,0,0,0-1.79-3.9Zm15.324,141.132,2.059,1.142,22.16-151.263-2.062-1.144-22.157,151.265ZM1921.951,688.6c-1.228-.682-2.361-.006-2.58,1.5a4.016,4.016,0,0,0,1.8,3.851,1.673,1.673,0,0,0,2.591-1.419,4.049,4.049,0,0,0-1.806-3.934Zm11.093,169.994,2.1,1.166L1957.3,708.514l-2.1-1.162L1933.043,858.59Zm24.3-158.181c-1.208-.666-2.382-.013-2.6,1.469a4.087,4.087,0,0,0,1.816,3.888,1.7,1.7,0,0,0,2.614-1.43,4.1,4.1,0,0,0-1.828-3.927Zm7.9,191.659,2.124,1.176,22.159-151.264L1987.4,740.8l-22.161,151.264Zm24.3-158.18c-1.184-.66-2.358-.029-2.576,1.478a4.074,4.074,0,0,0,1.8,3.85,1.682,1.682,0,0,0,2.61-1.405,4.035,4.035,0,0,0-1.829-3.923Zm6.866,198.86,2.1,1.165,22.157-151.24-2.1-1.162L1996.4,932.748Zm24.316-158.169c-1.226-.68-2.4-.025-2.618,1.456a4.1,4.1,0,0,0,1.835,3.9,1.694,1.694,0,0,0,2.595-1.443,4.093,4.093,0,0,0-1.812-3.914Zm8.966,184.228,2.081,1.155L2053.924,808.7l-2.08-1.151-22.16,151.262Zm24.3-158.18c-1.208-.669-2.358-.028-2.571,1.431a4.064,4.064,0,0,0,1.787,3.9c1.23.679,2.4.025,2.623-1.456a4.06,4.06,0,0,0-1.84-3.875Zm15.307,141.094,2.118,1.176,22.161-151.263-2.122-1.175Z" transform="translate(-1785.149 -688.329)" fill="#3856d8" fill-rule="evenodd" opacity="0.5"/>
            <path id="Path_5986" data-name="Path 5986" d="M2113.487,814.678a3.628,3.628,0,0,0-1.393-1.47,1.823,1.823,0,0,0-2.014.014c-5.147,3.97-9.853,7.4-14.267,10.363-4.35,3-8.445,5.459-12.237,7.567-17.655,9.637-30.443,10.319-43.03,3.334-12.317-7.1-24.2-22.058-39.714-43.106-17.355-23.553-32.667-39.505-48.09-48.056a65.707,65.707,0,0,0-6.845-3.3c-17.769-7.319-35.837-4.777-57.472,7.374-2.245,1.2-4.413,2.5-6.575,3.748-16.647,9.639-32.247,18.657-49.079,9.327-8.755-4.853-17.845-14.672-27.585-31.951a3.636,3.636,0,0,0-1.38-1.456,1.8,1.8,0,0,0-2.034.054c-.97.794-1.093,2.709-.236,4.22,10.879,19.323,20.936,30.222,30.571,35.563,18.143,10.057,34.785.392,52.547-9.882,2.2-1.224,4.364-2.472,6.567-3.7,20.636-11.618,37.751-14.117,54.4-7.281a59.87,59.87,0,0,1,6.169,2.986c14.547,8.062,29.238,23.384,46,46.128,16.1,21.784,28.461,37.334,41.833,45.047.254.147.512.293.768.433,13.26,7.352,27.141,6.725,45.907-3.485q5.828-3.174,12.552-7.722c4.453-3.052,9.254-6.535,14.4-10.506C2114.265,818.126,2114.376,816.284,2113.487,814.678Z" transform="translate(-1791.828 -704.567)" fill="#3856d8" fill-rule="evenodd" opacity="0.5"/>
            <path id="Path_5987" data-name="Path 5987" d="M2108.477,798.606a3.553,3.553,0,0,0-1.393-1.451,1.828,1.828,0,0,0-2.014.042c-5.147,4.042-9.854,7.536-14.267,10.562-4.35,3.056-8.445,5.576-12.237,7.739-17.654,9.882-30.443,10.743-43.03,3.934-12.316-6.925-24.2-21.721-39.713-42.552-17.355-23.31-32.667-39.049-48.09-47.384a64.545,64.545,0,0,0-6.845-3.208c-17.77-7.072-35.838-4.278-57.472,8.175-2.245,1.233-4.414,2.56-6.575,3.84-16.648,9.871-32.246,19.109-49.079,10.013-8.755-4.732-17.845-14.423-27.585-31.565a3.567,3.567,0,0,0-1.379-1.438,1.8,1.8,0,0,0-2.035.083c-.97.806-1.094,2.724-.236,4.222,10.879,19.172,20.936,29.931,30.572,35.137,18.142,9.8,34.784-.093,52.547-10.615,2.2-1.255,4.364-2.534,6.567-3.788,20.635-11.906,37.751-14.644,54.4-8.04a58.61,58.61,0,0,1,6.17,2.9c14.547,7.86,29.238,22.976,46,45.486,16.1,21.559,28.461,36.937,41.832,44.464.254.143.513.285.768.422,13.26,7.167,27.141,6.345,45.908-4.127q5.827-3.255,12.552-7.9c4.452-3.115,9.254-6.665,14.4-10.708C2109.255,802.043,2109.366,800.2,2108.477,798.606Z" transform="translate(-1789.712 -699.61)" fill="#6bb6ff" fill-rule="evenodd"/>
            <path id="Path_5988" data-name="Path 5988" d="M2107.151,797.4a218.588,218.588,0,0,1-26.5,18.3c-17.654,9.882-30.443,10.743-43.03,3.934-12.316-6.925-24.2-21.721-39.713-42.552-13.735-18.451-32.866-41.831-54.935-50.593-23.68-9.424-43.539-.119-64.048,12.015-16.648,9.871-32.246,19.109-49.079,10.013-8.755-4.731-17.844-14.423-27.585-31.565a3.566,3.566,0,0,0-1.379-1.438c2.76,7.1,15.158,28.167,27.133,34.639,18.141,9.8,33.745,1.206,51.508-9.316,19.815-11.281,40.286-21.427,63.172-12.348,20.779,8.3,40.783,32.561,53.724,49.944,16.1,21.558,27.682,36.287,41.053,43.813,11.146,6.247,20.483,5.909,30.314,2.241C2078.067,820.65,2101.917,805.6,2107.151,797.4Z" transform="translate(-1791.792 -699.811)" fill="aqua" fill-rule="evenodd"/>
          </g>
        </g>
        <g id="Group_468" data-name="Group 468" transform="translate(61.319 40.587)">
          <g id="Group_451" data-name="Group 451" transform="translate(17.299 191.743)">
            <path id="Path_5989" data-name="Path 5989" d="M1925.174,858.628l-159.4-88.331L1743.447,922.7l160.95,89.19c11.277,6.247,22.038.262,24.031-13.336L1941.98,894.6C1943.976,881,1936.448,864.878,1925.174,858.628Z" transform="translate(-1677.329 -738.124)" fill-rule="evenodd" opacity="0.5" fill="url(#linear-gradient-5)" style="mix-blend-mode: multiply;isolation: isolate"/>
            <g id="Group_450" data-name="Group 450">
              <g id="Group_447" data-name="Group 447">
                <path id="Path_5990" data-name="Path 5990" d="M1888.305,867.346l-15.467,105.115,1.857.225,5.065-1.967c5.554-2.188,8.469-7.971,9.283-13.592l12.374-94.9a.426.426,0,0,0,.007-.055c1.163-8.2-1.3-16.737-5.811-23.587a27.449,27.449,0,0,0-9.542-9.2L1683.049,716.848a14.834,14.834,0,0,0-12.627-1.411l-4.466,1.745c-2.248.844-2.943,1.519-2.929,1.66C1665.135,738.489,1891.263,847.194,1888.305,867.346Z" transform="translate(-1643.364 -714.601)" fill="#e5edff" fill-rule="evenodd"/>
                <path id="Path_5991" data-name="Path 5991" d="M1866.585,832.854,1663.566,720.317c-4.511-2.5-8.929-2.853-12.62-1.415-4.731,1.842-8.271,6.629-9.294,13.6l-12.372,94.9c-1.82,12.418,5.025,27.122,15.317,32.828l203.022,112.536c10.3,5.7,20.119.24,21.938-12.174l12.372-94.907C1883.75,853.278,1876.878,838.559,1866.585,832.854Z" transform="translate(-1628.987 -716.061)" fill="#d1e7ff" fill-rule="evenodd"/>
              </g>
              <g id="Group_448" data-name="Group 448" transform="translate(111.273 92.205)">
                <path id="Path_5992" data-name="Path 5992" d="M1957.848,938.382l-115.64-63.62a3.512,3.512,0,0,0-3.018-.337,3.867,3.867,0,0,0-2.222,3.252l-.773,4.678a8.188,8.188,0,0,0,3.661,7.846L1955.5,953.821c2.462,1.364,4.81.058,5.244-2.91l.773-4.68A8.192,8.192,0,0,0,1957.848,938.382Z" transform="translate(-1827.746 -874.222)" fill="#fff" fill-rule="evenodd" opacity="0.5"/>
                <path id="Path_5993" data-name="Path 5993" d="M1950.595,987.948l-115.64-63.621a3.517,3.517,0,0,0-3.018-.336,3.865,3.865,0,0,0-2.222,3.252l-.773,4.679a8.189,8.189,0,0,0,3.662,7.847l115.641,63.619c2.462,1.363,4.81.057,5.244-2.911l.773-4.679A8.192,8.192,0,0,0,1950.595,987.948Z" transform="translate(-1824.682 -895.157)" fill="#fff" fill-rule="evenodd" opacity="0.5"/>
                <path id="Path_5994" data-name="Path 5994" d="M1873.7,998.377,1827.7,973.892a3.517,3.517,0,0,0-3.018-.337,3.866,3.866,0,0,0-2.222,3.253l-.773,4.678a8.187,8.187,0,0,0,3.661,7.846l46,24.484c2.462,1.364,4.81.058,5.244-2.91l.774-4.68A8.2,8.2,0,0,0,1873.7,998.377Z" transform="translate(-1821.619 -916.091)" fill="#fff" fill-rule="evenodd" opacity="0.5"/>
              </g>
              <g id="Group_449" data-name="Group 449" transform="translate(15.444 27.642)">
                <path id="Path_5995" data-name="Path 5995" d="M1656.178,824.352c-3.567,32.023,14.19,71.141,39.713,87.313s49.99-4.655,52.676-28.763-1.826-34.131-9.122-50.029c-4.442,2.451-8.885,4.9-13.321,7.3,4.734,10.217,7.653,16.755,5.927,32.252s-17.46,28.87-33.847,18.479-27.8-35.524-25.507-56.086C1667.246,831.346,1661.694,827.849,1656.178,824.352Z" transform="translate(-1655.722 -788.597)" fill="#22d2fb" fill-rule="evenodd"/>
                <path id="Path_5996" data-name="Path 5996" d="M1674.647,768.179c-9.539,5.171-16.35,16.411-18.136,32.448,5.517,3.5,11.068,6.994,16.518,10.469,1.145-10.281,5.5-17.53,11.633-20.855Q1679.635,779.235,1674.647,768.179Z" transform="translate(-1656.055 -764.872)" fill="#12a3eb" fill-rule="evenodd"/>
                <path id="Path_5997" data-name="Path 5997" d="M1722.454,769.429c-12.772-8.084-25.032-8.889-34.537-3.717q4.967,11.08,10.009,22.111c6.138-3.324,14.02-2.819,22.18,2.365s15.178,14.08,19.781,24.214c4.437-2.4,8.874-4.8,13.315-7.254C1746.035,791.333,1735.224,777.513,1722.454,769.429Z" transform="translate(-1669.32 -762.454)" fill="#1c8df3" fill-rule="evenodd"/>
              </g>
            </g>
          </g>
          <g id="Group_454" data-name="Group 454" transform="translate(295.719 373.652)">
            <path id="Path_5998" data-name="Path 5998" d="M2153.355,1144.974c-23.39-18.649-37.373-57.384-31.242-86.547,6.126-29.147,30.048-37.682,53.438-19.033,23.375,18.639,37.369,57.4,31.24,86.548C2200.662,1155.105,2176.732,1163.611,2153.355,1144.974Z" transform="translate(-2115.072 -1029.516)" fill-rule="evenodd" opacity="0.5" fill="url(#linear-gradient-6)" style="mix-blend-mode: multiply;isolation: isolate"/>
            <g id="Group_453" data-name="Group 453" transform="translate(0 0.704)">
              <path id="Path_5999" data-name="Path 5999" d="M2129.431,1038.06c4.249-4.431,14.927-6.972,20.908-7.293,6.976-.374,14.764,2.457,22.484,8.819,20.263,16.7,32.394,51.434,27.082,77.548-1.577,7.758-4.42,13.962-8.394,18.227-3.709,3.979-15.645,9-21.156,9.442C2137.324,1149.4,2116.93,1051.1,2129.431,1038.06Z" transform="translate(-2117.202 -1030.734)" fill="#d0e7ff" fill-rule="evenodd"/>
              <g id="Group_452" data-name="Group 452" transform="translate(0 2.036)">
                <path id="Path_6000" data-name="Path 6000" d="M2139.311,1137.711c-20.276-16.709-32.4-51.417-27.083-77.547s26.048-33.763,46.324-17.053,32.394,51.434,27.082,77.548C2180.32,1146.79,2159.576,1154.411,2139.311,1137.711Z" transform="translate(-2110.978 -1034.259)" fill-rule="evenodd" fill="url(#linear-gradient-7)"/>
                <path id="Path_6001" data-name="Path 6001" d="M2175.542,1102.966l5.511,3.947-39.881,38.267-14.988-39.4,7.354,4.217,9.811,13.947Z" transform="translate(-2117.401 -1063.278)" fill="#fff" fill-rule="evenodd"/>
              </g>
            </g>
          </g>
          <g id="Group_456" data-name="Group 456" transform="translate(124.333 430.269)">
            <path id="Path_6002" data-name="Path 6002" d="M2093.258,1265.789l-240.728-133.27c-4.38-2.427-8.668-2.77-12.252-1.374-4.593,1.788-8.029,6.435-9.021,13.205L1814.564,1262.7c-1.766,12.054,4.878,26.327,14.868,31.865L2050.96,1417.2c2.416-.911,14.145-2.98,14.8-6.448Z" transform="translate(-1814.28 -1128.71)" fill-rule="evenodd" opacity="0.5" fill="url(#linear-gradient-8)" style="mix-blend-mode: multiply;isolation: isolate"/>
            <g id="Group_455" data-name="Group 455" transform="translate(8.378)">
              <path id="Path_6003" data-name="Path 6003" d="M2131.816,1299.705l-18.8,122.386,1.72.208,4.692-1.822c.236-.093.466-.193.692-.3l.067-.026c5.144-2.026,7.843-7.383,8.6-12.589l15.93-112.925c0-.019.006-.037.006-.051,1.078-7.6-1.2-15.5-5.381-21.848a25.417,25.417,0,0,0-8.839-8.522l-243.152-134.609a13.746,13.746,0,0,0-11.7-1.306l-4.137,1.616c-.434.163-.805.319-1.122.466-1.795.716-2.362,1.276-2.349,1.4C1870,1149.98,2134.556,1281.04,2131.816,1299.705Z" transform="translate(-1845.369 -1127.529)" fill="#d0e7ff" fill-rule="evenodd"/>
              <path id="Path_6004" data-name="Path 6004" d="M2108.43,1267.995l-243.148-134.609c-4.179-2.316-8.271-2.642-11.69-1.31-4.383,1.707-7.661,6.14-8.608,12.6L1829.056,1257.6c-1.686,11.5,4.655,25.122,14.188,30.406l243.151,134.608c9.537,5.284,18.635.224,20.321-11.276l15.927-112.931C2124.329,1286.912,2117.964,1273.279,2108.43,1267.995Z" transform="translate(-1828.784 -1129.119)" fill-rule="evenodd" fill="url(#linear-gradient-9)"/>
              <path id="Path_6005" data-name="Path 6005" d="M1849.025,1268.148c2.741-15.942,8.939-21.335,16.869-19.113a16.746,16.746,0,0,1,3.767,1.6c7.776,4.434,15.7,16.022,16.913,35.318.773,12.215,3.107,23.41,13.343,29.245,26.907,14.4,17.2-70.84,42.679-56.3,21.935,12.522,8.809,57.8,17.349,86.48,2.968,9.948,8.31,14.627,12,16.728,15.493,8.262,17.209-17.856,19.224-28.846,9.337-50.784,15.258-53.582,24.7-48.2,9.872,5.731,14.261,9.621,12.436,62.659-.756,21.689,0,41.114,15.26,50.263,17.041,9.724,18.539-10.2,26.106-19.909,4.5-5.764,10.333-6.943,15.663-3.906,5.762,3.286,10.931,11.5,13.178,24.183,3.768,21.273,2.033,50.693.913,60.964L1842.917,1314.1C1845.125,1298.534,1846.658,1281.932,1849.025,1268.148Z" transform="translate(-1834.753 -1178.646)" fill="#d0e7ff" fill-rule="evenodd"/>
            </g>
          </g>
          <g id="Group_459" data-name="Group 459" transform="translate(0 378.519)">
            <path id="Path_6006" data-name="Path 6006" d="M1762.882,1110.359l-39.91-21.91-17.282,117.963,40.365,22.16c11.242,6.226,21.966.262,23.952-13.291l9.626-69.07C1781.62,1132.658,1774.117,1116.588,1762.882,1110.359Z" transform="translate(-1644.084 -1059.272)" fill-rule="evenodd" opacity="0.5" fill="url(#linear-gradient-10)" style="mix-blend-mode: multiply;isolation: isolate"/>
            <g id="Group_458" data-name="Group 458">
              <g id="Group_457" data-name="Group 457">
                <path id="Path_6007" data-name="Path 6007" d="M1726.972,1120.853l-11.912,73.471,1.856.226,5.066-1.968c5.554-2.187,8.469-7.971,9.283-13.592l8.819-63.257a.435.435,0,0,0,.008-.055c1.163-8.2-1.3-16.737-5.811-23.587a27.449,27.449,0,0,0-9.542-9.2l-77.792-42.7a14.838,14.838,0,0,0-12.626-1.41l-4.466,1.744c-2.248.845-2.944,1.521-2.929,1.66C1629.033,1061.827,1729.93,1100.7,1726.972,1120.853Z" transform="translate(-1610.817 -1037.94)" fill="#d0e7ff" fill-rule="evenodd"/>
                <path id="Path_6008" data-name="Path 6008" d="M1707.852,1086.361l-77.788-42.7c-4.512-2.5-8.929-2.853-12.62-1.416-4.732,1.843-8.271,6.629-9.294,13.6l-8.818,63.261c-1.819,12.417,5.025,27.122,15.317,32.827l77.791,42.705c10.3,5.7,20.119.241,21.938-12.174l8.816-63.264C1725.016,1106.785,1718.144,1092.065,1707.852,1086.361Z" transform="translate(-1599.039 -1039.4)" fill="#fff" fill-rule="evenodd"/>
              </g>
              <path id="Path_6009" data-name="Path 6009" d="M1709.556,1142.519c-.787,5.387-5,7.824-9.456,5.354-4.534-2.513-7.455-8.9-6.667-14.292.784-5.348,4.984-7.684,9.519-5.172,4.451,2.467,7.387,8.762,6.6,14.11Zm-24.442,47.848c.788-5.383,4.988-7.718,9.524-5.205,4.455,2.467,7.391,8.762,6.6,14.144s-5,7.82-9.46,5.354c-4.534-2.513-7.455-8.909-6.667-14.292Zm-27.825-46.051c-.784,5.354-5.067,7.643-9.52,5.175-4.425-2.453-7.389-8.759-6.6-14.109.788-5.387,5.031-7.807,9.455-5.353,4.454,2.467,7.458,8.906,6.669,14.287Zm46.669-22.76c-7.579-4.2-14.852-.28-16.195,8.884l-.009.682-26.419,4.157a22.4,22.4,0,0,0-9.726-12.007c-7.578-4.2-14.747-.182-16.089,8.976-1.329,9.066,3.665,19.9,11.245,24.1,4.369,2.425,8.537,2.132,11.53-.33l21.308,30.719-.162.492c-1.341,9.159,3.777,19.954,11.355,24.154,7.493,4.154,14.74.217,16.085-8.946,1.326-9.063-3.742-19.972-11.241-24.13-5.391-2.988-10.554-1.834-13.608,2.26l-20.183-29.415a12.036,12.036,0,0,0,1.026-3.734,16.364,16.364,0,0,0,.159-4.358l25.121-4.3c1.479,6.639,5.56,12.881,10.956,15.869,7.493,4.153,14.745.183,16.09-8.981S1711.451,1125.709,1703.958,1121.556Z" transform="translate(-1614.357 -1072.544)" fill-rule="evenodd" fill="url(#linear-gradient-11)"/>
            </g>
          </g>
          <g id="Group_463" data-name="Group 463" transform="translate(359.821 42.035)">
            <path id="Path_6010" data-name="Path 6010" d="M2331.861,614.016l-87.623-45.491-9.139,4.387-12.846,93.328c-1.9,12.974,5.25,28.338,16,34.3l59.123,32.387,10.069-3.893Z" transform="translate(-2221.948 -503.197)" fill-rule="evenodd" opacity="0.5" fill="url(#linear-gradient-12)" style="mix-blend-mode: multiply;isolation: isolate"/>
            <g id="Group_462" data-name="Group 462" transform="translate(9.346)">
              <path id="Path_6011" data-name="Path 6011" d="M2411.754,554.124l-22.706,150.5,1.94.237,5.292-2.056c5.8-2.285,8.848-8.328,9.7-14.2l19.474-139.827a.327.327,0,0,0,.008-.058c1.216-8.569-1.359-17.488-6.071-24.646a28.682,28.682,0,0,0-9.969-9.613l-103.472-56.68c-4.036-2.292-8.766-3.144-13.194-1.474l-4.666,1.823c-2.348.882-3.074,1.589-3.06,1.734C2287.231,480.39,2414.844,533.067,2411.754,554.124Z" transform="translate(-2257.937 -455.431)" fill="#d0e7ff" fill-rule="evenodd"/>
              <path id="Path_6012" data-name="Path 6012" d="M2384.274,518.084,2280.806,461.4c-4.715-2.613-9.331-2.981-13.188-1.478-4.944,1.925-8.643,6.927-9.71,14.214l-19.475,139.83c-1.9,12.976,5.251,28.338,16,34.3L2357.91,704.95c10.757,5.96,21.022.251,22.922-12.72L2400.3,552.4C2402.208,539.425,2395.028,524.045,2384.274,518.084Z" transform="translate(-2238.127 -456.956)" fill="#fff" fill-rule="evenodd"/>
              <path id="Path_6013" data-name="Path 6013" d="M2387.4,518.084,2283.932,461.4c-4.714-2.613-9.331-2.981-13.188-1.478-4.944,1.925-8.643,6.926-9.71,14.214l-15.506,111.338L2387.957,663.5l15.472-111.1C2405.334,539.424,2398.154,524.045,2387.4,518.084Z" transform="translate(-2241.253 -456.956)" fill-rule="evenodd" fill="url(#linear-gradient-13)"/>
              <g id="Group_460" data-name="Group 460" transform="translate(11.932 144.215)">
                <path id="Path_6014" data-name="Path 6014" d="M2264.532,708.113c.35-2.6,2.308-3.742,4.371-2.552l46.831,25.407a7.318,7.318,0,0,1,3.1,6.861l-.68,5.139c-.351,2.6-2.311,3.741-4.373,2.552l-46.83-25.407a7.312,7.312,0,0,1-3.1-6.861Z" transform="translate(-2260.9 -705.09)" fill="#6d6afd" fill-rule="evenodd" opacity="0.25"/>
                <path id="Path_6015" data-name="Path 6015" d="M2259.433,747.385c.308-2.287,2.033-3.3,3.851-2.248,26.551,14.4,70.077,37.907,96.627,52.311a6.449,6.449,0,0,1,2.732,6.046l-.6,4.527c-.309,2.287-2.036,3.3-3.851,2.248-26.551-14.405-70.077-37.907-96.627-52.313a6.441,6.441,0,0,1-2.732-6.044Z" transform="translate(-2258.783 -721.829)" fill="#6d6afd" fill-rule="evenodd" opacity="0.25"/>
              </g>
              <path id="Path_6016" data-name="Path 6016" d="M2377.908,564.037l-12.1,90.233,23.139,13.036,12.1-90.235-23.139-13.035Zm-65.845-66.594-16.236,120.784,23.138,13.036L2335.2,510.478l-23.138-13.035Zm31.917,40.228,23.139,13.035L2353.68,650.82l-23.14-13.036,13.44-100.112Zm-70.752-29.229,23.139,13.036-12.1,90.234-23.139-13.036Z" transform="translate(-2247.84 -473.175)" fill="#4a9ef8" fill-rule="evenodd"/>
              <g id="Group_461" data-name="Group 461" transform="translate(20.01 67.794)">
                <path id="Path_6017" data-name="Path 6017" d="M2273.2,575.629a1.547,1.547,0,0,1,.432-2.318,2.1,2.1,0,0,1,2.672-.075l20.8,20.835,10.859,4.158,25.359-6.776,17.18-17.6a2.262,2.262,0,0,1,2.709-.471,1.3,1.3,0,0,1,.365.356l30.178,35.742,20.766,3.871c1.051-.1,1.837.541,1.756,1.438a2.251,2.251,0,0,1-2.053,1.814l-21.687-3.78a1.691,1.691,0,0,1-1.541-.519l-29.477-34.885-15.919,16.3,0,0a2.491,2.491,0,0,1-1.136.659l-26.725,7.141a2.067,2.067,0,0,1-1.27-.039l-11.632-4.455a1.453,1.453,0,0,1-.63-.365Z" transform="translate(-2272.799 -572.793)" fill="#4164f3" fill-rule="evenodd" opacity="0.5" style="mix-blend-mode: multiply;isolation: isolate"/>
                <path id="Path_6018" data-name="Path 6018" d="M2273.109,576.106a2.024,2.024,0,0,1,.485-2.718,1.861,1.861,0,0,1,2.669-.057l20.281,24.739,10.745,5.019,25.476-7.66,17.561-20.475a2.025,2.025,0,0,1,2.715-.521,1.405,1.405,0,0,1,.358.424l27.641,41.2,23.7-2.507a1.5,1.5,0,0,1,1.72,1.712,2.447,2.447,0,0,1-2.092,2.107l-24.619,2.6a1.539,1.539,0,0,1-1.525-.63l-26.962-40.182-16.272,18.973,0,0a2.462,2.462,0,0,1-1.149.761l-26.849,8.072a1.779,1.779,0,0,1-1.268-.061l-11.51-5.377a1.416,1.416,0,0,1-.62-.437Z" transform="translate(-2272.769 -572.794)" fill="#fff" fill-rule="evenodd"/>
              </g>
            </g>
          </g>
          <g id="Group_467" data-name="Group 467" transform="translate(5.402)">
            <path id="Path_6019" data-name="Path 6019" d="M1809.315,491.452l43.8,20.123c10.452,6.052,13.582,25.609,11.87,38.668l-8.9,65.556c-1.713,13.057-11.6,18.749-22.05,12.7l-39.689-24.09,1.573-10.856Z" transform="translate(-1686.929 -428.61)" fill-rule="evenodd" opacity="0.5" fill="url(#linear-gradient-14)" style="mix-blend-mode: multiply;isolation: isolate"/>
            <g id="Group_466" data-name="Group 466">
              <path id="Path_6020" data-name="Path 6020" d="M1623.1,397.247c.576-4.393-.62-7.047,1.56-9.533,1.388-1.581,5.77-3.619,7.6-4.308,3.544-1.335,7.775-.917,12.108,1.592l125.214,73.187c10.082,5.839,16.933,20.809,15.281,33.407l-8.584,63.243c-.512,3.905-1.967,8.942-5.3,11.817-2.371,2.048-6.342,4.172-9.135,4.523-2.867.361-3.626-2.229-6.841-4.091L1629.8,493.9c-10.1-5.845-16.935-20.81-15.283-33.407Z" transform="translate(-1610.872 -382.662)" fill="#d0e7ff" fill-rule="evenodd"/>
              <path id="Path_6021" data-name="Path 6021" d="M1617.223,400.724c1.651-12.6,11.174-18.094,21.27-12.248L1763.7,461.662c10.084,5.839,16.934,20.81,15.282,33.408l-8.584,63.242c-1.651,12.6-11.186,18.087-21.272,12.249l-125.21-73.188c-10.1-5.844-16.936-20.811-15.284-33.407Z" transform="translate(-1608.39 -384.13)" fill="#fff" fill-rule="evenodd"/>
              <path id="Path_6022" data-name="Path 6022" d="M1623.137,400.724c1.651-12.6,11.174-18.094,21.269-12.249l125.213,73.187c10.083,5.839,16.934,20.81,15.282,33.407l-.806,5.937a32.606,32.606,0,0,0-3.378-2.257l-158.325-92.542Z" transform="translate(-1614.304 -384.13)" fill-rule="evenodd" fill="url(#linear-gradient-15)"/>
              <g id="Group_464" data-name="Group 464" transform="translate(6.598 54.834)">
                <path id="Path_6023" data-name="Path 6023" d="M1644.15,478.076c12.752,2.918,22.547,18.1,21.877,33.918s-11.552,26.268-24.3,23.35-22.547-18.1-21.877-33.916S1631.4,475.159,1644.15,478.076Z" transform="translate(-1619.813 -477.588)" fill="#6d6afd" fill-rule="evenodd" opacity="0.2"/>
                <path id="Path_6024" data-name="Path 6024" d="M1651.382,501.086c6.876,1.572,12.156,9.76,11.8,18.286s-6.228,14.163-13.1,12.59-12.157-9.76-11.8-18.286,6.228-14.162,13.1-12.589Zm-.307,7.239c-3.652-.835-6.768,2.158-6.961,6.687s2.613,8.877,6.266,9.713,6.768-2.159,6.96-6.687S1654.727,509.159,1651.075,508.324Z" transform="translate(-1627.604 -487.401)" fill-rule="evenodd" fill="url(#linear-gradient-16)"/>
                <path id="Path_6025" data-name="Path 6025" d="M1712.381,528.312c.44-3.362,2.977-4.789,5.664-3.18l81.765,46.358c2.685,1.606,4.508,5.641,4.067,9l-.854,6.65c-.441,3.362-2.98,4.787-5.666,3.181l-81.763-46.358c-2.689-1.608-4.508-5.641-4.068-9Z" transform="translate(-1658.521 -497.389)" fill="#6d6afd" fill-rule="evenodd" opacity="0.2"/>
                <path id="Path_6026" data-name="Path 6026" d="M1707.221,571.807c.26-1.985,1.758-2.828,3.345-1.877l48.282,27.374a5.775,5.775,0,0,1,2.4,5.317l-.5,3.927c-.26,1.985-1.761,2.826-3.346,1.878l-48.282-27.375a5.768,5.768,0,0,1-2.4-5.317Z" transform="translate(-1656.5 -516.423)" fill="#6d6afd" fill-rule="evenodd" opacity="0.2"/>
              </g>
              <g id="Group_465" data-name="Group 465" transform="translate(17.189 10.938)">
                <path id="Path_6027" data-name="Path 6027" d="M1643.451,401.7c2.78.636,4.915,3.946,4.769,7.393s-2.518,5.725-5.3,5.089-4.915-3.945-4.769-7.392S1640.672,401.068,1643.451,401.7Z" transform="translate(-1638.147 -401.597)" fill="#fff" fill-rule="evenodd"/>
                <path id="Path_6028" data-name="Path 6028" d="M1665.363,414.289c2.78.635,4.915,3.945,4.768,7.392s-2.518,5.725-5.3,5.089-4.915-3.945-4.768-7.392S1662.584,413.653,1665.363,414.289Z" transform="translate(-1647.401 -406.913)" fill="#fff" fill-rule="evenodd"/>
                <path id="Path_6029" data-name="Path 6029" d="M1689.074,428.112c2.78.635,4.914,3.945,4.768,7.392s-2.518,5.725-5.3,5.09-4.914-3.946-4.769-7.392S1686.294,427.476,1689.074,428.112Z" transform="translate(-1657.416 -412.751)" fill="#fff" fill-rule="evenodd"/>
              </g>
            </g>
          </g>
        </g>
      </g>
      <g id="Group_496" data-name="Group 496" transform="translate(1294.378 552.24)">
        <g id="Group_483" data-name="Group 483" transform="translate(0 0)">
          <path id="Path_6030" data-name="Path 6030" d="M1302.948,1434.488l90.616-51.607c9.878-4.513,24.017-8.107,34.082-2.869,9.171,4.773,24.277,14.54,30.956,18.35,5.074,2.893,22.686,13.445,11.716,19.411-32.27,17.547-64.2,37.281-96.972,55.106-6.2,3.371-15.262,4.589-24.78,3.8-9.475-.787-19.2-3.547-26.839-7.993q-8.169-4.752-16.068-9.353c-7.108-4.139-10.877-9.032-11.25-13.557C1294.044,1441.353,1296.885,1437.257,1302.948,1434.488Z" transform="translate(-1294.378 -1002.055)" fill="#bb6ce9" fill-rule="evenodd" opacity="0.5"/>
          <g id="Group_482" data-name="Group 482" transform="translate(11.875)">
            <g id="Group_473" data-name="Group 473" transform="translate(82.59 60.709)">
              <g id="Group_471" data-name="Group 471" transform="translate(105.143 35.531)">
                <path id="Path_6031" data-name="Path 6031" d="M1664.7,902.827a15.411,15.411,0,0,1-2.134-.5c.781-.108,1.422-.21,1.867-.3a63.626,63.626,0,0,0,8.68-5.522c-2.609-5.281-9.083.2-10.346.3-.5.04-3.873-.559-7.15-.71-4.66-.215-7.615.776-10.814,4.313-1.487,1.045-3.164,2.319-4.87,3.667.4,4.411.961,8.1,3.658,11.933a8.489,8.489,0,0,1,2.531-.706c3.313-.348,6.491.412,13.8,2.84,7.416,2.462,8.73,2.384,20.18-5.857,8.385-6.036,12.955-9.416,11.522-13.848C1688.273,888.068,1675.039,901.38,1664.7,902.827Z" transform="translate(-1639.93 -894.21)" fill="#ffa698" fill-rule="evenodd"/>
                <g id="Group_470" data-name="Group 470" transform="translate(1.791 4.279)">
                  <path id="Path_6032" data-name="Path 6032" d="M1665.061,918.248c-7.13-1.131-12.113-7.039-17.956-3.586-1.472.87-2.81,1.729-4.075,2.6a17.853,17.853,0,0,0,1.867,3.347,8.487,8.487,0,0,1,2.531-.706c3.313-.348,6.491.412,13.8,2.84,7.416,2.462,8.73,2.384,20.179-5.857,5.633-4.054,9.543-6.91,11.07-9.692.747-1.359-1.441-2.893-3.236-1.61C1680.018,912.183,1675.4,916.8,1665.061,918.248Z" transform="translate(-1643.03 -903.089)" fill-rule="evenodd" fill="url(#linear-gradient-17)"/>
                  <path id="Path_6033" data-name="Path 6033" d="M1693.362,901.618c-3.129,2.382-19.563,9.962-23.416,9.19-1.033-.207-.871-2.209-.974-4.675-.79,1.641.185,5.32-1.388,4.52-8.815-4.484-12.622-5.309-17.72-2.078a18.253,18.253,0,0,1,10.075.724c3.072,1.033,5.916,2.842,9.168,3.728C1677.635,910.512,1682.817,909.641,1693.362,901.618Z" transform="translate(-1645.916 -901.618)" fill-rule="evenodd" fill="url(#linear-gradient-18)"/>
                </g>
              </g>
              <g id="Group_472" data-name="Group 472">
                <path id="Path_6034" data-name="Path 6034" d="M1494.512,918.119c-1.777-1.735-3.472-3.584-4.63-4.658-8.947-8.306-23.676-35.262-31.97-75.405,3-2.438,11.87-4.742,13.468-5.057a16.56,16.56,0,0,1,14.9,4.7c3.71,4.383,7.5,12.382,9.821,25.159,1.567,8.616,7.989,20.128,12.325,30.778q.286.7.559,1.4a201.9,201.9,0,0,1,19.084-8.64c8.636-3.454,18.482-6.7,29.145-9.8,1.272-.369,2.448.467,3.706.107.7-.3,3.831-1.409,4.388-1.672-.047,6.359,1.73,11.4,5.224,15.461-.646.22-4.081,1.8-4.784,2.062-1.046.509-2.255,2.1-3.06,2.934-8.019,8.279-31.153,20.677-52.443,27.183C1503.019,924.881,1497.566,923.676,1494.512,918.119Z" transform="translate(-1457.911 -832.7)" fill-rule="evenodd" fill="url(#linear-gradient-19)"/>
                <path id="Path_6035" data-name="Path 6035" d="M1494.512,918.755c-1.777-1.735-3.472-3.584-4.63-4.658-8.947-8.306-23.676-35.262-31.97-75.405,17.834-14.513,34.909,9.455,37.83,25.53,3.786,20.825,7.487,38.6,7.683,60.114A10.09,10.09,0,0,1,1494.512,918.755Z" transform="translate(-1457.911 -833.336)" fill="#3469c0" fill-rule="evenodd" opacity="0.35" style="mix-blend-mode: multiply;isolation: isolate"/>
              </g>
            </g>
            <g id="Group_474" data-name="Group 474" transform="translate(30.808 175.563)">
              <path id="Path_6036" data-name="Path 6036" d="M1374.332,1430.784c-.493,1.786-.217,3.279-1.1,5.625a65.322,65.322,0,0,0-2.892,9.038c-1.481,6.3.557,14.729-1.442,23.637-1.031,3.561-.954,6.414,1.413,9.559,2.319,3.084,6.685,8.026,12.375,7.84a8.53,8.53,0,0,0,6-2.912,14.339,14.339,0,0,0,3.587-10.558c-.123-1.7-1.109-7.168-.94-12.15.147-4.362.945-6.764.846-11.547-.107-5.055-.5-12.016-.574-15.279Z" transform="translate(-1368.269 -1200.157)" fill="#193161" fill-rule="evenodd"/>
              <path id="Path_6037" data-name="Path 6037" d="M1463.737,1382.354c-1.649,4.48-2.735,6.4-2.811,12.648,1.011,3.3,3.336,4.643,5.929,6.922l1.826.4c4.53,2.451,6.185,11.045,10.388,14.958,2.965,2.761,8.865,4.264,14.723,5.395,6.26,1.208,12.208-.579,10.578-5.5-4.048-12.231-21.549-26.045-21.949-39.712Z" transform="translate(-1407.403 -1177.635)" fill="#193161" fill-rule="evenodd"/>
              <path id="Path_6038" data-name="Path 6038" d="M1478.817,1149.07c-.449,23.433-5.555,67.285-4.776,90.375-5.986,6-17.973,4.145-21.869-2-2.431-21.248-5.265-51.432-5.545-63.091a90.427,90.427,0,0,1,3.116-27.341c-3.479-25.639-18.287-60.623-14.761-84.745,1.549-10.6,8.491-22,10.513-30.741,17.465,21.516,30.772,11.2,38,9.334-.042,7.434.521,6.443.28,14.256-.814,26.422-2.043,54.634-3.494,82.049A37.486,37.486,0,0,1,1478.817,1149.07Z" transform="translate(-1396.219 -1031.531)" fill-rule="evenodd" fill="url(#linear-gradient-20)"/>
              <path id="Path_6039" data-name="Path 6039" d="M1448.148,1196.585c-.818-9.227-1.4-17.259-1.52-22.225a90.434,90.434,0,0,1,3.116-27.342c-3.479-25.639-18.286-60.623-14.76-84.745,1.549-10.6,8.491-22,10.512-30.741,17.465,21.516,30.772,11.2,38,9.335,0,.828,0,1.552.007,2.195l-22.887,16.913,5.64-1.274c-.215,30.447-3.982,58.2-4.548,88.23-5.907,17.027-9.382,31.571-13.462,49.118Z" transform="translate(-1396.219 -1031.531)" fill="#1e2353" fill-rule="evenodd" opacity="0.3" style="mix-blend-mode: multiply;isolation: isolate"/>
              <path id="Path_6040" data-name="Path 6040" d="M1415.171,1170.728c-4.209,23.432-16.487,80.294-19.412,103.385-7.561,4.2-17.218,2.006-19.889-4.136-.087-21.247,0-59.461,1.588-71.119,1.323-9.7,4.757-24.673,8.635-33.388-1.549-54.746-7.665-69.338-.27-93.46,3.248-10.594,11.748-20.817,15.172-29.557,4.689,7.2,11.92,17.415,27.413,16.151,1.516-.123,14.434-9.352,18.7-10.412-5.406,32.571-20.983,75.114-28.563,110.637A41.146,41.146,0,0,1,1415.171,1170.728Z" transform="translate(-1371.47 -1036.144)" fill-rule="evenodd" fill="url(#linear-gradient-21)"/>
            </g>
            <path id="Path_6041" data-name="Path 6041" d="M1432.629,831.823a12.93,12.93,0,0,1,4.835,1.628c11.526,6.4,15.545,25.233,17.4,41.734,1.606,14.313.387,26.194-.067,39.29-.363,10.447.986,20.115.517,30-.139,2.928-1.251,6.106-1.552,9.223.009,2.23-.782,4.449-.755,6.17-5.77,22-60.311,23.826-68.25,8.927a44.032,44.032,0,0,0,1.4-6.663c-5.135-4.676-2.169-16.075-2.979-24.036-.608-5.978-1.465-12.076-3.234-16.435-7.417-18.271-17.774-32.338-19.832-46.363-1.417-9.66,10.93-21.689,27.209-31.432C1402.979,834.495,1424.24,829.378,1432.629,831.823Z" transform="translate(-1333.966 -771.364)" fill-rule="evenodd" fill="url(#linear-gradient-22)"/>
            <g id="Group_478" data-name="Group 478" transform="translate(37.857 100.474)">
              <g id="Group_477" data-name="Group 477" transform="translate(2.097)">
                <g id="Group_475" data-name="Group 475" transform="translate(0 1.033)">
                  <path id="Path_6042" data-name="Path 6042" d="M1465.1,906.146c-5.794,5.873-41.482,39.977-80.995,31.212l.408-2.689c41.645,9.239,79.251-31.224,79.36-31.34l1.017.973q.08.672.155,1.341Z" transform="translate(-1384.102 -903.329)" fill="#70b4f5" fill-rule="evenodd"/>
                  <path id="Path_6043" data-name="Path 6043" d="M1470.642,941.893c-9.769,9.2-40.151,34.537-74.141,29.622-.235-1-.495-1.969-.784-2.88,36.2,5.89,68.649-24.409,75.018-30.784Q1470.707,939.884,1470.642,941.893Z" transform="translate(-1389.008 -917.909)" fill="#70b4f5" fill-rule="evenodd"/>
                </g>
                <path id="Path_6044" data-name="Path 6044" d="M1394.162,950.863l7.022-14.612,9.411,15.877,8.109-19.33,11.142,14.906,5.767-20.763,11.771,12.7,5.356-23.629,8.782,13.252,7.364-27.728q.218,1.685.4,3.347.067.593.126,1.18l-7.2,27.128-8.683-13.1-5.195,22.914-11.879-12.82-5.875,21.153-11.415-15.271-8.264,19.7-9.509-16.041-6.409,13.334c-.192-.589-.4-1.155-.616-1.694C1394.3,951.2,1394.231,951.03,1394.162,950.863Z" transform="translate(-1388.351 -901.54)" fill="#70b4f5" fill-rule="evenodd"/>
                <g id="Group_476" data-name="Group 476" transform="translate(2.817 15.015)">
                  <path id="Path_6045" data-name="Path 6045" d="M1406.428,982.5a1.546,1.546,0,0,1,1.387,1.542,1.3,1.3,0,0,1-1.387,1.344,1.546,1.546,0,0,1-1.387-1.542A1.3,1.3,0,0,1,1406.428,982.5Z" transform="translate(-1395.763 -950.747)" fill="#70b4f5" fill-rule="evenodd"/>
                  <path id="Path_6046" data-name="Path 6046" d="M1420.914,967.79a1.545,1.545,0,0,1,1.387,1.542,1.3,1.3,0,0,1-1.387,1.344,1.545,1.545,0,0,1-1.386-1.542A1.3,1.3,0,0,1,1420.914,967.79Z" transform="translate(-1401.881 -944.535)" fill="#70b4f5" fill-rule="evenodd"/>
                  <path id="Path_6047" data-name="Path 6047" d="M1437.843,978.687a1.546,1.546,0,0,1,1.387,1.542,1.3,1.3,0,0,1-1.387,1.344,1.545,1.545,0,0,1-1.387-1.542A1.3,1.3,0,0,1,1437.843,978.687Z" transform="translate(-1409.031 -949.137)" fill="#70b4f5" fill-rule="evenodd"/>
                  <path id="Path_6048" data-name="Path 6048" d="M1452.172,959.715a1.546,1.546,0,0,1,1.387,1.543,1.3,1.3,0,0,1-1.387,1.344,1.546,1.546,0,0,1-1.387-1.543A1.3,1.3,0,0,1,1452.172,959.715Z" transform="translate(-1415.083 -941.124)" fill="#70b4f5" fill-rule="evenodd"/>
                  <path id="Path_6049" data-name="Path 6049" d="M1470.122,966.828a1.545,1.545,0,0,1,1.387,1.542,1.3,1.3,0,0,1-1.387,1.344,1.546,1.546,0,0,1-1.386-1.543A1.3,1.3,0,0,1,1470.122,966.828Z" transform="translate(-1422.665 -944.129)" fill="#70b4f5" fill-rule="evenodd"/>
                  <path id="Path_6050" data-name="Path 6050" d="M1480.83,945.865a1.545,1.545,0,0,1,1.387,1.542,1.3,1.3,0,0,1-1.387,1.345,1.546,1.546,0,0,1-1.387-1.543A1.3,1.3,0,0,1,1480.83,945.865Z" transform="translate(-1427.187 -935.274)" fill="#70b4f5" fill-rule="evenodd"/>
                  <path id="Path_6051" data-name="Path 6051" d="M1498.939,950.31a1.546,1.546,0,0,1,1.387,1.543,1.3,1.3,0,0,1-1.387,1.344,1.546,1.546,0,0,1-1.387-1.543A1.3,1.3,0,0,1,1498.939,950.31Z" transform="translate(-1434.835 -937.152)" fill="#70b4f5" fill-rule="evenodd"/>
                  <path id="Path_6052" data-name="Path 6052" d="M1508.545,927.537a1.544,1.544,0,0,1,1.387,1.542,1.3,1.3,0,0,1-1.387,1.344,1.546,1.546,0,0,1-1.387-1.543A1.3,1.3,0,0,1,1508.545,927.537Z" transform="translate(-1438.892 -927.534)" fill="#70b4f5" fill-rule="evenodd"/>
                  <path id="Path_6053" data-name="Path 6053" d="M1523.976,929.941a1.4,1.4,0,0,1,.348.07q.017,1.4.011,2.793a1.313,1.313,0,0,1-.359.023,1.546,1.546,0,0,1-1.386-1.543A1.3,1.3,0,0,1,1523.976,929.941Z" transform="translate(-1445.41 -928.549)" fill="#70b4f5" fill-rule="evenodd"/>
                  <path id="Path_6054" data-name="Path 6054" d="M1390.366,968.279a1.545,1.545,0,0,1,1.387,1.542,1.3,1.3,0,0,1-1.387,1.344,1.546,1.546,0,0,1-1.387-1.542A1.3,1.3,0,0,1,1390.366,968.279Z" transform="translate(-1388.979 -944.742)" fill="#70b4f5" fill-rule="evenodd"/>
                </g>
              </g>
              <path id="Path_6055" data-name="Path 6055" d="M1395.3,918.239c2.08,11.271-.549,30.357-6.1,40.446a128.2,128.2,0,0,0-8.721-18.521C1380.788,939.3,1392.725,904.3,1395.3,918.239Z" transform="translate(-1380.471 -907.21)" fill="#3469c0" fill-rule="evenodd" opacity="0.35" style="mix-blend-mode: multiply;isolation: isolate"/>
            </g>
            <g id="Group_479" data-name="Group 479" transform="translate(0 90.415)">
              <path id="Path_6056" data-name="Path 6056" d="M1392.594,1067.755c2.523,1.313,7.037,2.457,8.882,3.4.955.49,7.819,4.169,11.69,6.423,4.141,2.411,5.51,6.187,8.155,10.308a26.922,26.922,0,0,1,3.172,7.579c.369,1.786-3.986,5.548-5.96,5.243-4.484-.691-9.346-5.827-10.551-6.356-10.231-4.495-15.005-4.695-18.849-8.549-1.641-1.645-2.906-6.686-6.354-11.065l5.715-5.888Z" transform="translate(-1343.589 -961.682)" fill-rule="evenodd" fill="url(#linear-gradient-23)"/>
              <path id="Path_6057" data-name="Path 6057" d="M1340.228,890.955c-9.119,14.6-15.682,41.164-23.777,59.156a11.621,11.621,0,0,0-1.051,3.823c-1.5,4.468.843,8.2,3.94,12.174,7.578,9.726,13.634,18.5,29.236,30.121,1.168.87,2.406.859,4.085,1.205.979.708,2.367,2.009,3.41,2.749-1.331-1.5,5.506-10.046,8.878-9.733-.927-1.006-1.876-2.1-2.844-3.264a10.263,10.263,0,0,0-.963-3.755c-2.727-5.236-11.894-18.147-20.655-27.352,3.622-4.72,6.692-10.211,9.224-14.088a233.827,233.827,0,0,0,12.051-20.85c1.417-2.751,2.208-4.113,3.572-6.942C1375.453,893.2,1351.287,873.245,1340.228,890.955Z" transform="translate(-1314.935 -884.125)" fill-rule="evenodd" fill="url(#linear-gradient-24)"/>
            </g>
            <g id="Group_481" data-name="Group 481" transform="translate(60.872)">
              <g id="Group_480" data-name="Group 480">
                <path id="Path_6058" data-name="Path 6058" d="M1452.21,831.261c.165-.881.376-1.76.564-2.7.538-2.694-.162-7.922.557-14.091l-23.355-9.867c-.389,13.115-2.536,15.818-4.951,26.5.26,10.507,26.359,15.211,26.906,2.867A19.371,19.371,0,0,1,1452.21,831.261Z" transform="translate(-1422.304 -760.122)" fill="#ffa698" fill-rule="evenodd"/>
                <path id="Path_6059" data-name="Path 6059" d="M1455.408,831.261c.165-.881.376-1.76.564-2.7.538-2.694-.162-7.922.557-14.091l-23.355-9.867c-.089,2.978-.267,5.429-.52,7.563-.832,8.686,7.494,23.815,22.474,21.808A19.389,19.389,0,0,1,1455.408,831.261Z" transform="translate(-1425.502 -760.122)" fill-rule="evenodd" fill="url(#linear-gradient-25)"/>
                <path id="Path_6060" data-name="Path 6060" d="M1454.317,804.46c-2.865-1.892-10.7-6.649-13.265-8.532-5.615-4.12-4.935-9.375-6.56-17.61-5.251-3.753-7.016-6.73-7.485-10.1-1.114-7.991,3.439-16.6,9.541-21.306,5.333-4.113,11.469-5.264,18.367-3.754,13.4,2.936,18.921,13.076,19.63,24.667a7.773,7.773,0,0,1-.377,2.879,36.533,36.533,0,0,0-1.24,4.305c-.706,3.439,1.618,4.685.691,8.957-1.261,5.811-6.081,17.15-8.056,19.045C1464.045,804.471,1457.277,804.942,1454.317,804.46Z" transform="translate(-1423.071 -733.905)" fill="#ffa698" fill-rule="evenodd"/>
                <path id="Path_6061" data-name="Path 6061" d="M1489.513,777.583a37.5,37.5,0,0,1,.645,5.052,7.776,7.776,0,0,1-.377,2.879,36.423,36.423,0,0,0-1.239,4.305c-.707,3.439,1.617,4.685.69,8.957a69.251,69.251,0,0,1-3.629,10.678c-8.627,6.562-16.172-1.452-17.327-2.94-5.407-6.973-5.822-17.4-1.732-27.145C1472.771,781.459,1482.95,781.045,1489.513,777.583Z" transform="translate(-1438.683 -748.712)" fill-rule="evenodd" fill="url(#linear-gradient-26)"/>
                <path id="Path_6062" data-name="Path 6062" d="M1420.5,758.141c.358,4.431,3.826,15.813,6.453,20.034,2.721,4.375,1.535-.986,2.967-3.979,1.1-2.3,4.67-2.57,5.748-4.942.527,2.017,1.233,3.982,2.534,4.691.827.451,2.5,1.071,2.568-1.309.229-8.223,4.12-8.794,2.892-13.722-.921-3.695-.7-5.281.205-6.615,2.683.375,4.411,3.124,7.556,4.482,2.187.944,11.834,1.967,18.688-1.776,6.627-3.62,7.246-11.692,1.68-16.878-3.1-2.886-6.572-3.618-11.434-6.87a21.076,21.076,0,0,0-27.124,2.871C1421.033,736.594,1419.7,748.235,1420.5,758.141Z" transform="translate(-1420.315 -727.602)" fill="#562e65" fill-rule="evenodd"/>
                <path id="Path_6063" data-name="Path 6063" d="M1439.172,792.094c-5.056-2.293-5.68,3.743-5.228,7.484.311,2.57,2.406,2.587,2.964,4.646.666,2.454,2.4,3.736,3.969,3.847,3.192.224,1.685-4.7,1.49-6.612C1443.039,798.418,1442.381,793.55,1439.172,792.094Z" transform="translate(-1426.02 -754.627)" fill="#ffa698" fill-rule="evenodd"/>
              </g>
              <path id="Path_6064" data-name="Path 6064" d="M1467.053,756.348c-.491,3.434,3.927,7.473,10.142,7.813,5.76.316,13.569-1.046,16.455-8.044,1.016-2.46-.2-6.838-3.026-8.64-1.928-1.231-4.395-1.069-6.907.033-4.259,1.871-7.812,6.63-10.859,7.8C1469.961,756.422,1467.1,755.983,1467.053,756.348Z" transform="translate(-1440.039 -735.633)" fill-rule="evenodd" fill="url(#linear-gradient-27)"/>
            </g>
          </g>
        </g>
        <g id="Group_495" data-name="Group 495" transform="translate(549.756 76.736)">
          <g id="Group_484" data-name="Group 484" transform="translate(90.27)">
            <path id="Path_6065" data-name="Path 6065" d="M2414.419,904.4c-7.035-1.088-12.6,3.75-15.415,10.215-3.293,7.559-3.134,17.344-1.723,22.481,4.585,16.691-3.494,23.962-6.465,31.739A33.913,33.913,0,0,0,2389.1,981.7c.2,5.978,3.644,9.055,6.531,14.408a47.214,47.214,0,0,0,4.207,14.8c7.916,15.834,34.546,23.478,60.109,22.309,20.456-.935,40.229-8.175,49.181-16.5,9.825-9.131,11.094-32.312-5.408-34.673-3.844-.55-8.32-1.386-11.6-5.363-2.257-2.735-.076-9.943.466-19.541.526-9.295-1.6-19.073-15.105-22.334-5.175-1.249-10.219-1.764-14.536-4.6-9.435-6.193-5.982-17.7-16.216-24.469-6.179-4.089-16.123-4.977-26.982-1.963C2417.993,903.983,2416.216,904.206,2414.419,904.4Z" transform="translate(-2389.075 -901.992)" fill-rule="evenodd" fill="url(#linear-gradient-28)"/>
            <path id="Path_6066" data-name="Path 6066" d="M2410.941,922.879c-.586,4.538,1.076,8.488,3.771,12.293,6.289,8.876,9.594,8.181,13.035,19.487,5.658-3.776,9.542-4.353,11.173-.644,2.623,5.963.969,9.489,1.58,15.659.993,10.027,12.979-3.717,22.377,3.967,9.24,7.554,2.9,12.859,6.469,23.553,1.335,4,2.372,9.266,6.109,11.036,11.622,5.5,16.073,19.354-4.618,26.231-12.816,4.259-31.428,3.193-46.979-2.109-20.532-7-33.2-37.289-27.956-51.677,2.168-5.955,8.024-10.4,8.054-15.055C2404.057,949.636,2400.972,939.383,2410.941,922.879Z" transform="translate(-2391.703 -911.719)" fill="#22043d" fill-rule="evenodd"/>
          </g>
          <g id="Group_486" data-name="Group 486" transform="translate(0 23.224)">
            <g id="Group_485" data-name="Group 485">
              <path id="Path_6067" data-name="Path 6067" d="M2249.171,949.392c-3.131,1.016-1.472,4.648-.268,5.676,1.808,1.794,5.449,2.955,5.135,4.838-.352,2.113,11.408,6.185,11.38,6.014-1.736-5.722-4.778-9.106-5.42-9.533C2253.684,952.192,2254.4,954.883,2249.171,949.392Z" transform="translate(-2232.815 -947.29)" fill-rule="evenodd" fill="url(#linear-gradient-29)"/>
              <path id="Path_6068" data-name="Path 6068" d="M2244.714,971.81c6.756,9.017,12.1,26.424,18.885,34.538,2.142,2.561,5.321,6.785,9.038,6.14,19.244-3.339,1.727-10.789,3.78-16.037-3.238-11.309-16.99-17.641-22.643-30.149a22.745,22.745,0,0,0-1.031-2.533c-2.333-4.754-4.558-6.207-13.606-7.917-2.638-.5-3.522-1.371-5.147-2.689l-5.933-5.87c-1.96-1.615-3.614-2.114-4.431-1.694-.91.468-3.364,5.176-3.436,7.712v.011c-.334.958.711,2.681,3.031,4.5l7.365,10.29.644.089C2239.44,969.326,2242.707,970.114,2244.714,971.81Z" transform="translate(-2220.128 -945.457)" fill="#ffa698" fill-rule="evenodd"/>
            </g>
            <path id="Path_6069" data-name="Path 6069" d="M2296.61,1034.5c13.3-1.314,32.361-3.424,42.656-8.733,6.693-3.452,18.767-18.269,11.97-26.5-1.436-3.855-14.274,4.24-20.594,6.642-11.413,4.336-18.974,6.374-30.8,9.4-3.22-9.015-11.711-16.149-18.431-24.536a10.292,10.292,0,0,0-3.732-3.02,16.245,16.245,0,0,1-2.115-3.209c-1.135-.462-8.351,2.537-10.237,6.114.517.69,1.636,2.256,2.139,3.026.717,1.1.552,2.455,1.123,3.718,1.941,4.3,11.133,22.984,17.239,30.288,2.325,2.781,5.73,7.7,9.766,7C2295.945,1034.624,2296.281,1034.562,2296.61,1034.5Z" transform="translate(-2241.177 -963.637)" fill-rule="evenodd" fill="url(#linear-gradient-30)"/>
            <path id="Path_6070" data-name="Path 6070" d="M2316.527,1047.518c13.3-1.314,32.361-3.424,42.656-8.733,5.782-2.982,15.578-14.445,13.755-22.817-2.49-2.347-3.991-3.6-6.108-3.51-2.646.115-5.853,2.969-11.977,6.132-9.267,4.787-17.985,5.045-25.149,13.529-5.288,6.261-14.116,11.668-21.607,11.434,2.057,2.364,4.58,4.643,7.416,4.15C2315.862,1047.644,2316.2,1047.582,2316.527,1047.518Z" transform="translate(-2261.094 -976.657)" fill="#7e41df" fill-rule="evenodd" opacity="0.5"/>
          </g>
          <path id="Path_6071" data-name="Path 6071" d="M2340.042,1621.315l83.821-47.738c9.138-4.175,22.216-7.5,31.526-2.653,8.483,4.415,22.457,13.45,28.635,16.973,4.693,2.677,20.984,12.437,10.837,17.954-29.849,16.231-59.39,34.486-89.7,50.974-5.732,3.119-14.118,4.245-22.922,3.514a60.7,60.7,0,0,1-24.825-7.393q-7.557-4.4-14.864-8.651c-6.575-3.828-10.061-8.355-10.407-12.54C2331.806,1627.664,2334.433,1623.875,2340.042,1621.315Z" transform="translate(-2272.279 -1212.39)" fill="#bb6ce9" fill-rule="evenodd" opacity="0.5"/>
          <g id="Group_491" data-name="Group 491" transform="translate(91.241 154.984)">
            <g id="Group_488" data-name="Group 488">
              <g id="Group_487" data-name="Group 487" transform="translate(42.251 185.677)">
                <path id="Path_6072" data-name="Path 6072" d="M2496.816,1539.565c-.449,1.984.816,4.862,1.036,5.182,4.861,7.058-.929,6.464-.674,16.534.023.926-4.091,16.836-4.091,16.836s-9.694,2.348-10.417,2.22-6.61-2.4-6.61-2.4c.5-.86,1.156-2.963,1.562-3.753,2.79-5.437,4.266-12.033,5.343-18.656.712-4.375,2.048-11.179,1.147-15.777Z" transform="translate(-2472.806 -1539.565)" fill="#ffa698" fill-rule="evenodd"/>
                <path id="Path_6073" data-name="Path 6073" d="M2472.916,1581.807a43.274,43.274,0,0,0-2.724,6.415,3.033,3.033,0,0,0,.131,2.6c2.215,3.191,14.026-2.095,18.038-5.4,2.592-2.136,2.727-4.762,3.426-7.952,1.051-4.787,1.22-5.323,2.54-10.234l.855,13.48,1.085.708a149.711,149.711,0,0,1,2.248-17.335c.4-1.852,1.047-3.958,1.163-4.988.685-6.069-2.225-9.163-4.935-10.969.892,3.734-2.417,9.662-3.891,17.2C2489.066,1574.452,2481.007,1581.865,2472.916,1581.807Z" transform="translate(-2469.97 -1543.554)" fill="#161f69" fill-rule="evenodd"/>
              </g>
              <path id="Path_6074" data-name="Path 6074" d="M2393.3,1192.056c.918,4.139-3.311,18.432-2.229,23.93,1.031,18.1,4.208,33.409,16.4,69.6.006.411,11.139,22.542,11.885,24.859,7.592,23.609,17.054,49.24,25.1,73.092,2.981,2.306,12,1.59,13.157-4.022-2.485-23.827.224-47.318-3.861-63.62-3.114-12.423-7.2-18.086-13.87-27.292-2.053-23.418-3.531-70.389-8.861-88.4Z" transform="translate(-2390.893 -1192.056)" fill-rule="evenodd" fill="url(#linear-gradient-31)"/>
              <path id="Path_6075" data-name="Path 6075" d="M2395.4,1192.056c.918,4.139,3.648,11.806,4.729,17.3,3.4,8.329,10.564,19.732,15.4,29.312,1.449,11.614,1.043,27.05,8.295,48.571l6.564,49.757c5.4,15.582,11.071,31.417,16.171,46.537,2.981,2.306,12,1.59,13.157-4.022-2.485-23.827.224-47.318-3.861-63.62-3.114-12.423-7.2-18.086-13.87-27.292-2.053-23.418-3.531-70.389-8.861-88.4Z" transform="translate(-2392.991 -1192.056)" fill="#1e2353" fill-rule="evenodd" opacity="0.3" style="mix-blend-mode: multiply;isolation: isolate"/>
            </g>
            <g id="Group_490" data-name="Group 490" transform="translate(7.169 10.587)">
              <g id="Group_489" data-name="Group 489" transform="translate(27.401 198.089)">
                <path id="Path_6076" data-name="Path 6076" d="M2478.753,1583.755c-.229,2.2.786,4.425,1.042,6.619a76.878,76.878,0,0,1,.721,11.713,104.282,104.282,0,0,1-2.608,21.057c-.672,2.929-1.977,4.186-2.856,8.2l-17.272,2.82c1.7-6.536,4.041-19.77,5.8-30.845l3.3-20.708Z" transform="translate(-2456.612 -1582.609)" fill="#ffa698" fill-rule="evenodd"/>
                <path id="Path_6077" data-name="Path 6077" d="M2478.618,1594.98c1,3.466,2.142,5.315,2.292,10.046s-2.033,12.122-1.851,17.978l.291,9.294c.169,5.413-1.208,9.169-7.357,13.644-5.574,4.057-11,5.718-13.957,4.278-2.176-1.061-3.912-4.893-.579-15,2.777-8.42,3.491-16.649,5.123-25.785-.573,8.981-.789,11.98-2.955,20.774-.605,2.458-.964,6.571,1.954,6.988,12.068,1.724,12.675-1.52,13.67-5.245C2477.908,1622,2479.853,1604.307,2478.618,1594.98Z" transform="translate(-2455.594 -1588.37)" fill="#161f69" fill-rule="evenodd"/>
              </g>
              <path id="Path_6078" data-name="Path 6078" d="M2459.183,1215.578c13.408,16.787,13.747,26.094,10.839,46.264-1.944,13.489-5.9,29.852-6.888,53.555,1.16,12.225,3.35,25.917,1.683,44.91-1.227,13.973-5.154,37.949-8.117,54.9-2.787,5.237-15.96,2.958-18.113.259.621-24.288.239-40.942-.922-60.558-1.129-19.081-3.4-36.78-4.833-55.6-1.183-15.572-5.909-36.751-6.536-53.573-2.51-7.93-26.255-34.194-21.309-33.856Z" transform="translate(-2404.311 -1211.871)" fill-rule="evenodd" fill="url(#linear-gradient-32)"/>
            </g>
          </g>
          <g id="Group_492" data-name="Group 492" transform="translate(88.687 58.574)">
            <path id="Path_6079" data-name="Path 6079" d="M2449.078,1084.551c-6.022,13.934,4.216,21.645.53,31.243l1.137,6.5c-10.989,7.891-50.292,8.478-60.145-7.164l-.205-7.8c-1.7-3.735-.58-13.176-.083-15.666,1.582-7.92.843-12.122,1.708-21.282.218-2.315.652-3.773.866-6.119-8.751-6.541-8.2-19.193-3.013-26.77a66.6,66.6,0,0,0,6.806-12.02,54.552,54.552,0,0,1,1.515-6.883,11.41,11.41,0,0,1,1.834-3.76c2.5-3.567,6.537-3.994,14.787-2.1,16.347,3.751,33.181,12.239,40.7,20.242,5.465,5.821,5.249,12.28,2.114,26.24A149.735,149.735,0,0,1,2449.078,1084.551Z" transform="translate(-2386.113 -1011.617)" fill-rule="evenodd" fill="url(#linear-gradient-33)"/>
            <path id="Path_6080" data-name="Path 6080" d="M2452.99,1110.7c-6.021,13.933,3.968,21.894.282,31.49l1.139,6.417c-10.99,8.553-50.293,8.147-60.146-7.5l.208-6.808c.005-.27,19.3,17.115,41.262,7.448,4.771-2.1,9.091-12.54,2.914-32.479-.587-1.9-7.588-2.028-17.5-9.331,7.32,3.1,21.122,7.355,21.8-11.267.3-8.327,1.529-14.586,5.792-20.375,2.066-2.806,14.183,11.917,12.337,18.976A176.642,176.642,0,0,1,2452.99,1110.7Z" transform="translate(-2389.909 -1037.852)" fill="#7e41df" fill-rule="evenodd" opacity="0.5"/>
          </g>
          <g id="Group_493" data-name="Group 493" transform="translate(132.279 77.926)">
            <path id="Path_6081" data-name="Path 6081" d="M2492.4,1205.749c-2,1.211-5.641,2.388-7.105,3.262-.757.453-6.192,3.835-9.248,5.889-3.268,2.2-4.191,5.365-6.142,8.887a22.109,22.109,0,0,0-2.2,6.384c-.209,1.485,3.562,4.34,5.166,3.985,3.64-.805,7.357-5.275,8.317-5.774,8.155-4.229,12.059-4.645,15.007-8.01,1.26-1.436,2.03-5.638,4.626-9.414l-5-4.526Z" transform="translate(-2467.699 -1121.375)" fill-rule="evenodd" fill="url(#linear-gradient-34)"/>
            <path id="Path_6082" data-name="Path 6082" d="M2502,1048.805c12.111,7.629,25.5,28.675,37.49,47.406a8.714,8.714,0,0,1,.507,9.3,23,23,0,0,1-2.358,4.241,116.334,116.334,0,0,1-23.448,26.207,9.119,9.119,0,0,1-3.548,1.472c-.765.633-1.834,1.773-2.652,2.435,1.013-1.3-5.049-7.835-7.8-7.4.708-.875,1.427-1.823,2.16-2.828a8.293,8.293,0,0,1,.487-3.1c3.968-9.022,9.015-18.093,15.309-24.99-10.925-11.818-17.184-14.68-27.363-27.079C2478.424,1059.417,2493.969,1043.746,2502,1048.805Z" transform="translate(-2476.305 -1047.836)" fill-rule="evenodd" fill="url(#linear-gradient-35)"/>
          </g>
          <g id="Group_494" data-name="Group 494" transform="translate(101.876 17.614)">
            <path id="Path_6083" data-name="Path 6083" d="M2453.561,991.965a42.9,42.9,0,0,0,1.633,21c-5.893,5.456-16.374,3.138-18.809-1.807.515-3.2,1.114-6.135,1.46-9.419Z" transform="translate(-2422.713 -961.506)" fill="#ffa698" fill-rule="evenodd"/>
            <path id="Path_6084" data-name="Path 6084" d="M2453.986,991.965a41.119,41.119,0,0,0-.526,10.162c-1.729,6.988-14.8,11.705-16.163,6.148.371-2.146.732-4.257.973-6.535Z" transform="translate(-2423.138 -961.506)" fill-rule="evenodd" fill="url(#linear-gradient-36)"/>
            <path id="Path_6085" data-name="Path 6085" d="M2417.3,934.959a23.353,23.353,0,0,0-3.824,15.989,6.871,6.871,0,0,1-.548,3.821c-2.749,6.2-2.5,8.125-1.141,13.095,1.325,4.833,1.234,7.358,2.884,9.018,1.692,1.7,4.223,2.1,6.37,2.231,4.4.278,11.95-2.623,16.34-5.024,3.255-1.78,3.129-3,4.5-6.081,4.593-4,1.618-6.912.079-7.211-4.415-.857-5.128,4.228-7.743,5.354C2434.653,957.215,2417.627,942.133,2417.3,934.959Z" transform="translate(-2410.798 -934.959)" fill="#ffa698" fill-rule="evenodd"/>
            <path id="Path_6086" data-name="Path 6086" d="M2415.348,941.656a22.963,22.963,0,0,0-1.872,12.411,6.869,6.869,0,0,1-.548,3.821c-2.749,6.2-2.5,8.125-1.14,13.095.593,2.167.9,3.87,1.212,5.24a4.123,4.123,0,0,0,5.135,1.484c1.837-.815,3.642-2.989,4.1-6.609.323-2.571,5.592-4.266,6.679-6.88.9-2.167-1.532-4.585-3.005-5.834C2420.742,954.013,2417.527,948.082,2415.348,941.656Z" transform="translate(-2410.797 -938.078)" fill-rule="evenodd" fill="url(#linear-gradient-37)"/>
            <path id="Path_6087" data-name="Path 6087" d="M2422.932,934.959c2.471,10.971,16.8,19.275,16.919,31.192C2435.932,953.767,2422.033,945.29,2422.932,934.959Z" transform="translate(-2416.429 -934.959)" fill="#ff8f7f" fill-rule="evenodd"/>
          </g>
        </g>
      </g>
    </g>
  </g>
</svg>
